<svg xmlns="http://www.w3.org/2000/svg" xmlns:xlink="http://www.w3.org/1999/xlink" width="500" zoomAndPan="magnify" viewBox="0 0 375 374.999991" height="500" preserveAspectRatio="xMidYMid meet" version="1.0"><defs><clipPath id="1d23044079"><path d="M 139 36 L 360.855469 36 L 360.855469 355 L 139 355 Z M 139 36 " clip-rule="nonzero"/></clipPath><clipPath id="2d7ab6f278"><path d="M 14.355469 20.910156 L 250 20.910156 L 250 369.660156 L 14.355469 369.660156 Z M 14.355469 20.910156 " clip-rule="nonzero"/></clipPath></defs><g clip-path="url(#1d23044079)"><path fill="#ffd600" d="M 201.832031 354.097656 C 289.496094 354.097656 360.816406 282.855469 360.816406 195.285156 C 360.816406 107.714844 289.496094 36.472656 201.832031 36.472656 C 179.785156 36.472656 158.773438 40.984375 139.667969 49.121094 C 155.113281 43.9375 171.652344 41.125 188.847656 41.125 C 274.078125 41.125 343.171875 110.144531 343.171875 195.285156 C 343.171875 280.425781 274.078125 349.445312 188.847656 349.445312 C 171.652344 349.445312 155.117188 346.632812 139.671875 341.449219 C 158.773438 349.585938 179.785156 354.097656 201.832031 354.097656 " fill-opacity="1" fill-rule="nonzero"/></g><g clip-path="url(#2d7ab6f278)"><path fill="#020301" d="M 249.214844 358.90625 C 233.902344 363.328125 218.039062 365.574219 201.832031 365.574219 C 178.820312 365.574219 156.496094 361.070312 135.476562 352.1875 C 115.175781 343.609375 96.945312 331.335938 81.292969 315.695312 C 65.636719 300.0625 53.347656 281.847656 44.761719 261.570312 C 35.871094 240.574219 31.363281 218.273438 31.363281 195.285156 C 31.363281 172.300781 35.871094 149.996094 44.761719 129 C 53.347656 108.722656 65.636719 90.507812 81.292969 74.875 C 96.945312 59.234375 115.175781 46.960938 135.476562 38.382812 C 156.496094 29.5 178.820312 24.996094 201.832031 24.996094 C 218.039062 24.996094 233.902344 27.242188 249.210938 31.664062 C 230.398438 24.734375 210.066406 20.953125 188.847656 20.953125 C 92.460938 20.953125 14.324219 99.003906 14.324219 195.285156 C 14.324219 291.566406 92.460938 369.617188 188.847656 369.617188 C 210.066406 369.617188 230.402344 365.835938 249.214844 358.90625 " fill-opacity="1" fill-rule="nonzero"/></g><path fill="#ffd600" d="M 212.699219 221.769531 C 212.667969 222.097656 212.628906 222.433594 212.589844 222.765625 C 212.546875 223.101562 212.503906 223.445312 212.449219 223.785156 C 212.394531 224.132812 212.34375 224.480469 212.285156 224.828125 C 212.21875 225.175781 212.148438 225.527344 212.078125 225.878906 C 211.792969 227.296875 211.402344 228.75 210.921875 230.199219 C 210.660156 230.914062 210.433594 231.652344 210.117188 232.363281 C 209.96875 232.71875 209.820312 233.074219 209.667969 233.433594 L 209.167969 234.488281 C 208.84375 235.199219 208.441406 235.871094 208.074219 236.550781 C 207.894531 236.898438 207.675781 237.21875 207.46875 237.546875 C 207.261719 237.875 207.054688 238.199219 206.847656 238.523438 C 206.398438 239.148438 205.960938 239.773438 205.492188 240.363281 C 205.25 240.652344 205.011719 240.941406 204.773438 241.226562 C 204.535156 241.511719 204.300781 241.796875 204.042969 242.054688 C 203.789062 242.320312 203.539062 242.582031 203.289062 242.839844 C 203.164062 242.972656 203.042969 243.101562 202.917969 243.226562 C 202.796875 243.355469 202.65625 243.46875 202.527344 243.585938 C 202.265625 243.820312 202.011719 244.054688 201.753906 244.28125 C 201.496094 244.511719 201.257812 244.746094 200.984375 244.941406 C 200.453125 245.351562 199.945312 245.75 199.441406 246.121094 C 198.917969 246.464844 198.410156 246.796875 197.929688 247.113281 C 197.804688 247.191406 197.683594 247.265625 197.566406 247.34375 C 197.441406 247.410156 197.320312 247.480469 197.199219 247.542969 C 196.953125 247.675781 196.71875 247.804688 196.488281 247.933594 C 196.253906 248.054688 196.03125 248.175781 195.8125 248.292969 C 195.699219 248.351562 195.59375 248.410156 195.488281 248.460938 C 195.375 248.511719 195.269531 248.5625 195.160156 248.605469 C 194.730469 248.792969 194.335938 248.972656 193.964844 249.128906 C 193.59375 249.285156 193.257812 249.433594 192.933594 249.53125 C 192.304688 249.75 191.800781 249.898438 191.464844 250.007812 C 191.125 250.109375 190.941406 250.164062 190.941406 250.164062 C 190.941406 250.164062 191.09375 250.054688 191.382812 249.84375 C 191.675781 249.640625 192.09375 249.328125 192.632812 248.960938 C 192.90625 248.78125 193.195312 248.558594 193.503906 248.316406 C 193.8125 248.074219 194.152344 247.824219 194.511719 247.550781 C 194.878906 247.292969 195.234375 246.964844 195.621094 246.644531 C 195.8125 246.484375 196.011719 246.324219 196.214844 246.15625 C 196.316406 246.070312 196.417969 245.988281 196.523438 245.902344 C 196.621094 245.808594 196.71875 245.71875 196.820312 245.625 C 197.222656 245.253906 197.640625 244.867188 198.074219 244.46875 C 198.484375 244.050781 198.910156 243.617188 199.34375 243.175781 C 199.773438 242.730469 200.183594 242.238281 200.617188 241.757812 C 200.839844 241.519531 201.039062 241.261719 201.25 241 C 201.453125 240.746094 201.664062 240.484375 201.875 240.222656 C 202.089844 239.96875 202.277344 239.679688 202.480469 239.40625 C 202.679688 239.132812 202.882812 238.855469 203.085938 238.574219 C 203.292969 238.300781 203.464844 237.996094 203.660156 237.707031 C 203.851562 237.417969 204.042969 237.125 204.238281 236.828125 C 204.589844 236.21875 204.960938 235.617188 205.304688 234.992188 C 205.636719 234.359375 205.996094 233.742188 206.289062 233.089844 L 206.761719 232.121094 C 206.902344 231.792969 207.046875 231.464844 207.1875 231.136719 C 207.484375 230.484375 207.734375 229.816406 207.996094 229.15625 C 208.136719 228.832031 208.234375 228.488281 208.355469 228.160156 C 208.472656 227.828125 208.605469 227.503906 208.710938 227.171875 C 208.914062 226.503906 209.144531 225.855469 209.328125 225.199219 C 209.722656 223.894531 210.03125 222.613281 210.328125 221.390625 C 210.597656 220.164062 210.851562 218.996094 211.035156 217.90625 C 211.234375 216.820312 211.386719 215.8125 211.515625 214.917969 C 211.648438 214.019531 211.742188 213.234375 211.820312 212.582031 C 211.886719 211.933594 211.953125 211.414062 211.980469 211.0625 C 212.007812 210.710938 212.023438 210.523438 212.023438 210.523438 C 212.023438 210.523438 212.242188 211.25 212.457031 212.566406 C 212.566406 213.222656 212.671875 214.023438 212.75 214.949219 C 212.828125 215.875 212.878906 216.925781 212.878906 218.070312 C 212.886719 219.214844 212.8125 220.457031 212.699219 221.769531 Z M 237.035156 320.675781 L 271.722656 209.65625 L 214.054688 197.234375 C 213.675781 196.5 213.277344 195.785156 212.859375 195.085938 L 267 174.042969 L 215.179688 69.894531 L 253.371094 171.738281 L 209.339844 190.15625 C 208.578125 189.261719 207.78125 188.414062 206.949219 187.617188 L 243.5625 160.773438 L 191.785156 102.199219 L 234.316406 161.644531 L 207.667969 182.246094 C 208.40625 180.09375 208.808594 177.789062 208.808594 175.386719 C 208.808594 169.300781 206.238281 163.8125 202.121094 159.941406 L 208.429688 149.617188 L 191.785156 135.449219 L 202.140625 149.617188 L 197.605469 156.6875 C 194.617188 155.082031 191.203125 154.171875 187.570312 154.171875 L 187.570312 253.859375 C 204.730469 253.859375 218.636719 237.210938 218.636719 216.675781 C 218.636719 215.175781 218.5625 213.691406 218.417969 212.234375 L 240.28125 220.15625 L 217.976562 289.746094 L 249.351562 218.164062 L 217.707031 207.601562 C 217.445312 206.355469 217.128906 205.136719 216.765625 203.945312 L 258.628906 214.085938 L 237.035156 320.675781 " fill-opacity="1" fill-rule="nonzero"/><path fill="#020301" d="M 177.535156 156.6875 L 173 149.617188 L 183.359375 135.449219 L 166.714844 149.617188 L 173.019531 159.941406 C 168.90625 163.8125 166.335938 169.300781 166.335938 175.386719 C 166.335938 177.789062 166.734375 180.09375 167.46875 182.246094 L 140.824219 161.644531 L 183.359375 102.199219 L 131.582031 160.773438 L 168.195312 187.617188 C 167.359375 188.414062 166.5625 189.261719 165.800781 190.15625 L 121.773438 171.738281 L 159.960938 69.894531 L 108.144531 174.042969 L 162.28125 195.085938 C 161.863281 195.785156 161.464844 196.5 161.089844 197.234375 L 103.417969 209.65625 L 138.109375 320.675781 L 116.515625 214.085938 L 158.375 203.945312 C 158.011719 205.136719 157.695312 206.355469 157.4375 207.601562 L 125.789062 218.164062 L 157.164062 289.746094 L 134.859375 220.15625 L 156.722656 212.234375 C 156.578125 213.691406 156.503906 215.175781 156.503906 216.675781 C 156.503906 237.210938 170.414062 253.859375 187.570312 253.859375 L 187.570312 154.171875 C 183.941406 154.171875 180.523438 155.082031 177.535156 156.6875 " fill-opacity="1" fill-rule="nonzero"/></svg>